<svg width="256" height="256" viewBox="0 0 256 256" fill="none" xmlns="http://www.w3.org/2000/svg">
  <rect width="256" height="256" rx="56" fill="#F8FAFC"/>
  <rect x="36" y="36" width="184" height="184" rx="36" fill="url(#bg)"/>
  <path d="M78 70H132C144.15 70 154 79.85 154 92V94C154 106.15 144.15 116 132 116H102V180H78V70Z" fill="white"/>
  <rect x="97" y="86" width="18" height="18" rx="3" fill="#2563EB"/>
  <rect x="121" y="86" width="18" height="18" rx="3" fill="#06B6D4"/>
  <rect x="97" y="110" width="18" height="18" rx="3" fill="#06B6D4"/>
  <rect x="121" y="110" width="18" height="18" rx="3" fill="#2563EB"/>
  <rect x="97" y="134" width="18" height="18" rx="3" fill="#2563EB"/>
  <rect x="121" y="134" width="18" height="18" rx="3" fill="#06B6D4"/>
  <path d="M102 180H154" stroke="white" stroke-width="12" stroke-linecap="round"/>
  <defs>
    <linearGradient id="bg" x1="36" y1="36" x2="220" y2="220" gradientUnits="userSpaceOnUse">
      <stop offset="0" stop-color="#2563EB"/>
      <stop offset="1" stop-color="#06B6D4"/>
    </linearGradient>
  </defs>
</svg>
